<svg width="176" height="25" viewBox="0 0 176 25" fill="none" xmlns="http://www.w3.org/2000/svg">
<g clip-path="url(#clip0_1_411)">
<path fill-rule="evenodd" clip-rule="evenodd" d="M14.1844 3.26647C15.9413 5.0511 16.8861 7.41002 16.8489 9.90788V9.90479C16.7718 14.9345 12.5449 19.0255 7.42874 19.0255H0.240831C0.104978 19.0255 0.037051 18.8619 0.132766 18.7631L3.631 15.2463C3.68967 15.1877 3.76685 15.1537 3.85022 15.1537H7.49667C10.4299 15.1537 12.8876 12.8071 12.974 9.92641C13.0173 8.45671 12.4769 7.0673 11.4519 6.01134C10.4268 4.95539 9.05282 4.37492 7.5862 4.37492H3.87492V10.371C3.87492 10.4235 3.83478 10.4636 3.78229 10.4636H0.0926276C0.0401387 10.4636 0 10.4235 0 10.371V0.592624C0 0.540135 0.0401387 0.5 0.0926276 0.5H7.5862C10.0841 0.5 12.4275 1.48185 14.1844 3.26647ZM24.7192 5.46788C20.199 5.46788 18.1366 8.93216 18.1366 12.3161L18.1335 12.3192C18.1335 15.6785 20.4615 19.22 24.9817 19.22C28.2175 19.22 30.7308 17.4169 31.305 14.601C31.3174 14.5423 31.2711 14.4867 31.2124 14.4867H27.8007C27.7606 14.4867 27.7265 14.5145 27.7141 14.5546C27.4023 15.6477 26.4328 16.2065 24.9817 16.2065C23.1323 16.2065 21.9434 15.0425 21.6779 13.1652H31.163C31.2124 13.1652 31.2525 13.1313 31.2556 13.0819C31.2804 12.7978 31.302 12.4304 31.302 11.9734C31.302 8.93216 29.2394 5.46788 24.7192 5.46788ZM24.7192 8.16335C26.4915 8.16335 27.5227 9.35207 27.6277 10.8341H21.7304C22.0484 8.98155 23.055 8.16335 24.7192 8.16335ZM32.9138 12.3161C32.9138 8.93216 34.9762 5.46788 39.4964 5.46788C44.0166 5.46788 46.0792 8.93216 46.0792 11.9734C46.0792 12.4304 46.0576 12.7978 46.0328 13.0819C46.0298 13.1313 45.9896 13.1652 45.9402 13.1652H36.4552C36.7206 15.0425 37.9095 16.2065 39.7589 16.2065C41.21 16.2065 42.1796 15.6477 42.4915 14.5546C42.5037 14.5145 42.5378 14.4867 42.5779 14.4867H45.9896C46.0483 14.4867 46.0946 14.5423 46.0823 14.601C45.508 17.4169 42.9947 19.22 39.7589 19.22C35.2387 19.22 32.9107 15.6785 32.9107 12.3192L32.9138 12.3161ZM42.4049 10.8341C42.2999 9.35207 41.2687 8.16335 39.4964 8.16335C37.8322 8.16335 36.8256 8.98155 36.5077 10.8341H42.4049ZM51.7079 5.68092H48.2189V5.67474C48.1665 5.67474 48.1262 5.71489 48.1262 5.76738V24.3021C48.1262 24.3546 48.1665 24.3949 48.2189 24.3949H51.7079C51.7603 24.3949 51.8005 24.3546 51.8005 24.3021V17.8121C52.5137 18.7106 53.8105 19.2138 55.3172 19.2138C59.1519 19.2138 61.7426 16.4905 61.7426 12.3409C61.7426 8.19113 59.3619 5.46788 55.6075 5.46788C53.8877 5.46788 52.5939 6.10392 51.8005 7.13518V5.77354C51.8005 5.72107 51.7603 5.68092 51.7079 5.68092ZM58.093 12.3439C58.093 14.5639 56.7993 16.046 54.8417 16.046C52.8873 16.046 51.5906 14.5886 51.5906 12.3439C51.5906 10.0993 52.8873 8.61722 54.8417 8.61722C56.7962 8.61722 58.093 10.124 58.093 12.3439ZM67.115 21.6068C67.1735 21.5482 67.2508 21.5172 67.3341 21.5172H71.0824C72.2186 21.5172 73.0122 20.6188 73.0122 19.4022V17.6578C72.3236 18.6366 70.9219 19.2171 69.3626 19.2171C65.4229 19.2171 63.0701 16.4938 63.0701 12.344C63.0701 8.19429 65.4229 5.47105 69.3101 5.47105C70.9497 5.47105 72.2434 6.0793 73.0122 7.00558V5.77672C73.0122 5.72423 73.0523 5.68408 73.1048 5.68408H76.5938C76.6462 5.68408 76.6865 5.72423 76.6865 5.77672V19.8036C76.6865 22.5546 74.7043 24.4042 71.6908 24.4042H64.7035C64.5647 24.4042 64.4967 24.2374 64.5955 24.1417L67.115 21.613V21.6068ZM69.9462 16.043C71.9562 16.043 73.2252 14.5887 73.2252 12.3409C73.2252 10.0932 71.9562 8.61421 69.9462 8.61421C67.9363 8.61421 66.6951 10.0963 66.6951 12.3409C66.6951 14.5856 67.9918 16.043 69.9462 16.043ZM83.0685 18.9113V12.5262H83.0716C83.0716 10.2506 83.8898 8.74386 85.7145 8.74386H87.8172C87.8697 8.74386 87.9098 8.70373 87.9098 8.65124V5.77052C87.9098 5.71803 87.8697 5.6779 87.8172 5.6779H86.4277C84.7883 5.6779 83.7817 6.23057 83.0685 7.89787V5.77052C83.0685 5.71803 83.0284 5.6779 82.9759 5.6779H79.4869C79.4344 5.6779 79.3943 5.71803 79.3943 5.77052V18.9113C79.3943 18.9637 79.4344 19.004 79.4869 19.004H82.9759C83.0284 19.004 83.0685 18.9637 83.0685 18.9113ZM89.0861 15.2247C89.0861 12.6065 91.0438 11.0194 93.9769 11.0194H96.197C96.8577 11.0194 97.2005 10.5964 97.2005 10.0407C97.2005 8.92914 96.3544 8.16343 94.8477 8.16343C93.341 8.16343 92.4331 9.11749 92.3652 10.192C92.3652 10.2414 92.3251 10.2784 92.2757 10.2784H89.1851C89.1295 10.2784 89.0861 10.2321 89.0892 10.1765C89.2715 7.55208 91.4296 5.46487 95.0329 5.46487C98.4169 5.46487 100.875 7.4224 100.875 10.4359V18.9082C100.875 18.9606 100.835 19.0009 100.782 19.0009H97.2931C97.2406 19.0009 97.2005 18.9606 97.2005 18.9082V17.1514C96.7496 18.3925 95.2707 19.214 93.4459 19.214C90.8801 19.214 89.083 17.4942 89.083 15.2216L89.0861 15.2247ZM94.3999 16.5462C96.1722 16.5462 97.2034 15.2247 97.2034 13.5327V13.3475H94.5327C93.3965 13.3475 92.6276 14.036 92.6276 15.0673C92.6276 15.9411 93.3687 16.5493 94.3999 16.5493V16.5462ZM106.698 5.68092H103.209L103.215 5.67784C103.163 5.67784 103.122 5.71799 103.122 5.77046V18.9113C103.122 18.9637 103.163 19.0038 103.215 19.0038H106.704C106.756 19.0038 106.797 18.9637 106.797 18.9113V11.4424C106.797 9.72258 107.772 8.58634 109.307 8.58634C110.733 8.58634 111.66 9.72258 111.66 11.4424V18.9113C111.66 18.9637 111.7 19.0038 111.752 19.0038H115.241C115.294 19.0038 115.334 18.9637 115.334 18.9113V11.4424C115.334 9.72258 116.309 8.58634 117.844 8.58634C119.27 8.58634 120.197 9.72258 120.197 11.4424V18.9113C120.197 18.9637 120.237 19.0038 120.289 19.0038H123.778C123.831 19.0038 123.871 18.9637 123.871 18.9113V10.2783C123.871 7.61066 121.994 5.46788 119.113 5.46788C116.973 5.46788 115.306 6.60411 114.645 7.9009C114.009 6.31388 112.66 5.46788 110.573 5.46788C108.773 5.46788 107.504 6.34166 106.79 7.55818V5.77354C106.79 5.72107 106.75 5.68092 106.698 5.68092Z" fill="#E1E1E5"/>
</g>
<path d="M136.702 19.3028C140.843 19.3028 143.603 16.9366 143.603 12.4014C143.603 7.8662 140.744 5.5 136.603 5.5H131.871V19.3028H136.702ZM134.533 7.8662H136.406C139.068 7.8662 140.941 8.9507 140.941 12.4014C140.941 15.8521 139.068 16.9366 136.406 16.9366H134.533V7.8662Z" fill="url(#paint0_linear_1_411)"/>
<path d="M150.144 19.5C153.102 19.5 155.074 17.331 155.074 14.3732C155.074 11.4155 153.102 9.24648 150.144 9.24648C147.186 9.24648 145.214 11.4155 145.214 14.3732C145.214 17.331 147.186 19.5 150.144 19.5ZM150.065 17.4296C148.685 17.4296 147.798 16.3056 147.798 14.3732C147.798 12.4408 148.685 11.3169 150.065 11.3169H150.223C151.603 11.3169 152.49 12.4408 152.49 14.3732C152.49 16.3056 151.603 17.4296 150.223 17.4296H150.065Z" fill="url(#paint1_linear_1_411)"/>
<path d="M161.328 19.5C163.891 19.5 165.567 18.3169 165.764 15.8521H163.201C163.043 16.8183 162.471 17.4296 161.407 17.4296H161.249C159.79 17.4296 159.159 16.0493 159.159 14.3732C159.159 12.6972 159.79 11.3169 161.249 11.3169H161.407C162.471 11.3169 163.043 11.9282 163.201 12.8944H165.764C165.567 10.4296 163.891 9.24648 161.328 9.24648C158.666 9.24648 156.595 11.2183 156.595 14.3732C156.595 17.5282 158.666 19.5 161.328 19.5Z" fill="url(#paint2_linear_1_411)"/>
<path d="M171.366 19.5C174.027 19.5 175.388 18.1394 175.388 16.4634C175.388 14.9056 174.52 13.9986 172.627 13.5254L171.306 13.1901C170.498 12.993 170.005 12.7169 170.005 12.1845C170.005 11.4944 170.596 11.2183 171.287 11.2183H171.444C172.332 11.2183 172.825 11.7507 172.923 12.5986H175.487C175.487 10.5282 174.008 9.24648 171.444 9.24648C168.98 9.24648 167.481 10.5085 167.481 12.2831C167.481 13.8803 168.467 14.7479 170.537 15.2606L171.819 15.5761C172.529 15.7535 172.864 16.0493 172.864 16.562C172.864 17.1535 172.312 17.5282 171.523 17.5282H171.366C170.38 17.5282 169.709 16.9366 169.709 16.0493H167.087C167.087 18.2183 168.704 19.5 171.366 19.5Z" fill="url(#paint3_linear_1_411)"/>
<defs>
<linearGradient id="paint0_linear_1_411" x1="91.9612" y1="5.5" x2="175.487" y2="5.50001" gradientUnits="userSpaceOnUse">
<stop stop-color="#201CFF"/>
<stop offset="0.895833" stop-color="#13EF95"/>
</linearGradient>
<linearGradient id="paint1_linear_1_411" x1="91.9612" y1="5.5" x2="175.487" y2="5.50001" gradientUnits="userSpaceOnUse">
<stop stop-color="#201CFF"/>
<stop offset="0.895833" stop-color="#13EF95"/>
</linearGradient>
<linearGradient id="paint2_linear_1_411" x1="91.9612" y1="5.5" x2="175.487" y2="5.50001" gradientUnits="userSpaceOnUse">
<stop stop-color="#201CFF"/>
<stop offset="0.895833" stop-color="#13EF95"/>
</linearGradient>
<linearGradient id="paint3_linear_1_411" x1="91.9612" y1="5.5" x2="175.487" y2="5.50001" gradientUnits="userSpaceOnUse">
<stop stop-color="#201CFF"/>
<stop offset="0.895833" stop-color="#13EF95"/>
</linearGradient>
<clipPath id="clip0_1_411">
<rect width="123.871" height="24" fill="white" transform="translate(0 0.5)"/>
</clipPath>
</defs>
</svg>
